<svg xmlns="http://www.w3.org/2000/svg" id="Capa_1" data-name="Capa 1" viewBox="0 0 196.97 250.71"><defs><style>.cls-1{fill:#84807e}.cls-2,.cls-5{fill:#fff}.cls-3{fill:#333}.cls-4{fill:#0071bc}.cls-5{stroke:#000;stroke-miterlimit:10}.cls-6{font-size:40px;font-family:FranklinGothic-Heavy,Franklin Gothic Heavy;font-weight:800}.cls-7{letter-spacing:.01em}.cls-8{fill:red}</style></defs><path d="M0,158.59H188.15a0,0,0,0,1,0,0v21.12a6.63,6.63,0,0,1-6.63,6.63H6.73A6.73,6.73,0,0,1,0,179.6v-21A0,0,0,0,1,0,158.59Z" class="cls-1"/><circle cx="94.08" cy="172.46" r="5.62" class="cls-2"/><polygon points="188.15 155.22 0 155.22 31.54 71.48 156.61 71.48 188.15 155.22" class="cls-3"/><path d="M40,32.37H144.88a9.34,9.34,0,0,1,9.34,9.34v26.4a0,0,0,0,1,0,0H30.65a0,0,0,0,1,0,0V41.71A9.34,9.34,0,0,1,40,32.37Z" class="cls-3"/><rect width="45.72" height="18.89" x="98.29" y="41.35" class="cls-4"/><rect width="29.62" height="50.3" x="42.9" y=".5" class="cls-5"/><text class="cls-6" transform="translate(8.54 219.69)"><tspan class="cls-7">S</tspan><tspan x="24.61" y="0">T</tspan><tspan x="43.42" y="0" class="cls-8">0</tspan><tspan x="66.88" y="0">CKER</tspan></text></svg>